# xmcd CD database file
#
# Track frame offsets:
#	150
#	17358
#	36268
#	47894
#	64932
#	77331
#	91222
#	107839
#	123193
#	137772
#	154094
#
# Disc length: 2453 seconds
#
# Revision: 1
# Processed by: cddbd v1.5.2PL0 Copyright (c) Steve Scherf et al.
# Submitted via: CDex 1.51
#
DISCID=8309930b
DTITLE=Bonnie 'Prince' Billy - Master And Everyone
DYEAR=2003
DGENRE=Rock
TTITLE0=The Way
TTITLE1=Ain't You Wealthy, Ain't You Wise?
TTITLE2=Master And Everyone
TTITLE3=Wolf Among Wolves
TTITLE4=Joy And Jubilee
TTITLE5=Maundering
TTITLE6=Lessons From What's Poor
TTITLE7=Even If Love
TTITLE8=Three Questions
TTITLE9=Hard Life
TTITLE10=Forest Time
EXTD=YEAR: 2003
EXTT0=
EXTT1=
EXTT2=
EXTT3=
EXTT4=
EXTT5=
EXTT6=
EXTT7=
EXTT8=
EXTT9=
EXTT10=
PLAYORDER=
